<svg width="28" height="28" viewBox="0 0 28 28" fill="none" xmlns="http://www.w3.org/2000/svg">
<path d="M7.00006 1.25H21.0001C24.1757 1.25 26.7501 3.82436 26.7501 7V21C26.7501 24.1756 24.1757 26.75 21.0001 26.75H7.00006C3.82442 26.75 1.25006 24.1756 1.25006 21V7C1.25006 3.82436 3.82442 1.25 7.00006 1.25Z" stroke="white" stroke-opacity="0.9" stroke-width="2.5" stroke-linecap="round" stroke-linejoin="round"/>
<path d="M18.3639 13.3008C18.4981 14.2059 18.3435 15.1302 17.9221 15.9424C17.5007 16.7545 16.8339 17.4131 16.0167 17.8244C15.1994 18.2358 14.2732 18.379 13.3699 18.2336C12.4665 18.0883 11.632 17.6618 10.985 17.0148C10.3381 16.3678 9.91155 15.5333 9.76619 14.63C9.62083 13.7266 9.76401 12.8004 10.1754 11.9832C10.5867 11.1659 11.2453 10.4991 12.0575 10.0777C12.8696 9.65631 13.7939 9.50171 14.699 9.63592C15.6222 9.77282 16.4769 10.203 17.1369 10.863C17.7968 11.5229 18.227 12.3776 18.3639 13.3008Z" stroke="white" stroke-opacity="0.9" stroke-width="2.5" stroke-linecap="round" stroke-linejoin="round"/>
</svg>
