<svg width="28" height="28" viewBox="0 0 28 28" fill="none" xmlns="http://www.w3.org/2000/svg">
<path fill-rule="evenodd" clip-rule="evenodd" d="M5 0C2.23858 0 0 2.23858 0 5V23C0 25.7614 2.23858 28 5 28H15.2632V28.0004H19.4486V28H23C25.7614 28 28 25.7614 28 23V5C28 2.23858 25.7614 0 23 0H5ZM19.4486 28V17.3605H22.9407L23.4611 13.3353H19.4486V10.7612C19.4486 9.59926 19.7732 8.80423 21.4577 8.80423L23.6066 8.79867V5.20159C23.2317 5.15156 21.9563 5.04036 20.4783 5.04036C17.378 5.04036 15.2632 6.91952 15.2632 10.3665V13.3353H11.7595V17.3605H15.2632V28H19.4486Z" fill="white" fill-opacity="0.9"/>
</svg>
